HIERARCHY
ROOT hip
{
  OFFSET 0 90.174 2.4664
  CHANNELS 6 Xposition Yposition Zposition Zrotation Xrotation Yrotation
  JOINT abdomen
  {
    OFFSET 0 -1.186 -1.5018
    CHANNELS 6 Xposition Yposition Zposition Zrotation Xrotation Yrotation
    JOINT abdomen2
    {
      OFFSET 0 9.964 0.2134
      CHANNELS 6 Xposition Yposition Zposition Zrotation Xrotation Yrotation
      JOINT chest
      {
        OFFSET 0 13.134 -3.2573
        CHANNELS 6 Xposition Yposition Zposition Zrotation Xrotation Yrotation
        JOINT neck
        {
          OFFSET 0 20.686 -1.6905
          CHANNELS 6 Xposition Yposition Zposition Zrotation Xrotation Yrotation
          JOINT head
          {
            OFFSET 0 7.238 -0.1237
            CHANNELS 6 Xposition Yposition Zposition Zrotation Xrotation Yrotation
            End Site
            {
              OFFSET 0 0 0
            }
          }
        }
        JOINT lCollar
        {
          OFFSET 1.7069 20.075 5.0056
          CHANNELS 6 Xposition Yposition Zposition Zrotation Xrotation Yrotation
          JOINT lShldr
          {
            OFFSET 13.6458 -0.047 -4.849
            CHANNELS 6 Xposition Yposition Zposition Zrotation Xrotation Yrotation
            JOINT lForeArm
            {
              OFFSET 28.3255 -0.9759 2.2888
              CHANNELS 6 Xposition Yposition Zposition Zrotation Xrotation Yrotation
              JOINT lHand
              {
                OFFSET 22.1583 -0.53 10.8316
                CHANNELS 6 Xposition Yposition Zposition Zrotation Xrotation Yrotation
                JOINT lThumb1
                {
                  OFFSET 0.786 0.112 2.5817
                  CHANNELS 6 Xposition Yposition Zposition Zrotation Xrotation Yrotation
                  JOINT lThumb2
                  {
                    OFFSET 0.3601 -0.878 4.2331
                    CHANNELS 6 Xposition Yposition Zposition Zrotation Xrotation Yrotation
                    JOINT lThumb2_End
                    {
                      OFFSET 1.8127 -1.216 2.2227
                      CHANNELS 6 Xposition Yposition Zposition Zrotation Xrotation Yrotation
                      End Site
                      {
                        OFFSET 0.0181 -0.0122 0.0222
                      }
                    }
                  }
                }
                JOINT lCarpal1
                {
                  OFFSET 0.9571 1.114 1.7695
                  CHANNELS 6 Xposition Yposition Zposition Zrotation Xrotation Yrotation
                  JOINT lIndex1
                  {
                    OFFSET 4.1246 0.487 4.1451
                    CHANNELS 6 Xposition Yposition Zposition Zrotation Xrotation Yrotation
                    JOINT lIndex2
                    {
                      OFFSET 3.4052 -1.454 2.7682
                      CHANNELS 6 Xposition Yposition Zposition Zrotation Xrotation Yrotation
                      JOINT lIndex2_End
                      {
                        OFFSET 1.4531 -1.795 1.2713
                        CHANNELS 6 Xposition Yposition Zposition Zrotation Xrotation Yrotation
                        End Site
                        {
                          OFFSET 0.0145 -0.0179 0.0127
                        }
                      }
                    }
                  }
                  JOINT lMid1
                  {
                    OFFSET 5.6954 0.21 2.1184
                    CHANNELS 6 Xposition Yposition Zposition Zrotation Xrotation Yrotation
                    JOINT lMid2
                    {
                      OFFSET 3.9766 -1.54 2.3863
                      CHANNELS 6 Xposition Yposition Zposition Zrotation Xrotation Yrotation
                      JOINT lMid2_End
                      {
                        OFFSET 1.4042 -1.926 1.125
                        CHANNELS 6 Xposition Yposition Zposition Zrotation Xrotation Yrotation
                        End Site
                        {
                          OFFSET 0.014 -0.0193 0.0113
                        }
                      }
                    }
                  }
                }
                JOINT lCarpal2
                {
                  OFFSET 2.0956 0.66 -0.3894
                  CHANNELS 6 Xposition Yposition Zposition Zrotation Xrotation Yrotation
                  JOINT lRing1
                  {
                    OFFSET 5.0395 -0.09 2.4971
                    CHANNELS 6 Xposition Yposition Zposition Zrotation Xrotation Yrotation
                    JOINT lRing2
                    {
                      OFFSET 3.7921 -1.552 1.4806
                      CHANNELS 6 Xposition Yposition Zposition Zrotation Xrotation Yrotation
                      JOINT lRing2_End
                      {
                        OFFSET 1.4655 -1.808 0.9609
                        CHANNELS 6 Xposition Yposition Zposition Zrotation Xrotation Yrotation
                        End Site
                        {
                          OFFSET 0.0147 -0.0181 0.0096
                        }
                      }
                    }
                  }
                  JOINT lPinky1
                  {
                    OFFSET 4.9141 -1.269 0.3591
                    CHANNELS 6 Xposition Yposition Zposition Zrotation Xrotation Yrotation
                    JOINT lPinky2
                    {
                      OFFSET 3.1477 -1.685 0.8462
                      CHANNELS 6 Xposition Yposition Zposition Zrotation Xrotation Yrotation
                      JOINT lPinky2_End
                      {
                        OFFSET 0.8055 -1.585 0.7955
                        CHANNELS 6 Xposition Yposition Zposition Zrotation Xrotation Yrotation
                        End Site
                        {
                          OFFSET 0.0081 -0.0158 0.008
                        }
                      }
                    }
                  }
                }
              }
            }
          }
        }
        JOINT rCollar
        {
          OFFSET -1.7069 20.075 5.0056
          CHANNELS 6 Xposition Yposition Zposition Zrotation Xrotation Yrotation
          JOINT rShldr
          {
            OFFSET -13.6458 -0.047 -4.849
            CHANNELS 6 Xposition Yposition Zposition Zrotation Xrotation Yrotation
            JOINT rForeArm
            {
              OFFSET -28.3255 -0.9759 2.2888
              CHANNELS 6 Xposition Yposition Zposition Zrotation Xrotation Yrotation
              JOINT rHand
              {
                OFFSET -22.1583 -0.53 10.8316
                CHANNELS 6 Xposition Yposition Zposition Zrotation Xrotation Yrotation
                JOINT rThumb1
                {
                  OFFSET -0.786 0.112 2.5817
                  CHANNELS 6 Xposition Yposition Zposition Zrotation Xrotation Yrotation
                  JOINT rThumb2
                  {
                    OFFSET -0.3601 -0.878 4.2331
                    CHANNELS 6 Xposition Yposition Zposition Zrotation Xrotation Yrotation
                    JOINT rThumb2_End
                    {
                      OFFSET -1.8127 -1.216 2.2227
                      CHANNELS 6 Xposition Yposition Zposition Zrotation Xrotation Yrotation
                      End Site
                      {
                        OFFSET -0.0181 -0.0122 0.0222
                      }
                    }
                  }
                }
                JOINT rCarpal1
                {
                  OFFSET -0.9571 1.114 1.7695
                  CHANNELS 6 Xposition Yposition Zposition Zrotation Xrotation Yrotation
                  JOINT rIndex1
                  {
                    OFFSET -4.1246 0.487 4.1451
                    CHANNELS 6 Xposition Yposition Zposition Zrotation Xrotation Yrotation
                    JOINT rIndex2
                    {
                      OFFSET -3.4052 -1.454 2.7682
                      CHANNELS 6 Xposition Yposition Zposition Zrotation Xrotation Yrotation
                      JOINT rIndex2_End
                      {
                        OFFSET -1.4531 -1.795 1.2713
                        CHANNELS 6 Xposition Yposition Zposition Zrotation Xrotation Yrotation
                        End Site
                        {
                          OFFSET -0.0145 -0.018 0.0127
                        }
                      }
                    }
                  }
                  JOINT rMid1
                  {
                    OFFSET -5.6954 0.21 2.1184
                    CHANNELS 6 Xposition Yposition Zposition Zrotation Xrotation Yrotation
                    JOINT rMid2
                    {
                      OFFSET -3.9766 -1.54 2.3863
                      CHANNELS 6 Xposition Yposition Zposition Zrotation Xrotation Yrotation
                      JOINT rMid2_End
                      {
                        OFFSET -1.4042 -1.926 1.125
                        CHANNELS 6 Xposition Yposition Zposition Zrotation Xrotation Yrotation
                        End Site
                        {
                          OFFSET -0.014 -0.0193 0.0113
                        }
                      }
                    }
                  }
                }
                JOINT rCarpal2
                {
                  OFFSET -2.0956 0.66 -0.3894
                  CHANNELS 6 Xposition Yposition Zposition Zrotation Xrotation Yrotation
                  JOINT rRing1
                  {
                    OFFSET -5.0395 -0.09 2.4971
                    CHANNELS 6 Xposition Yposition Zposition Zrotation Xrotation Yrotation
                    JOINT rRing2
                    {
                      OFFSET -3.7921 -1.552 1.4806
                      CHANNELS 6 Xposition Yposition Zposition Zrotation Xrotation Yrotation
                      JOINT rRing2_End
                      {
                        OFFSET -1.4655 -1.808 0.9609
                        CHANNELS 6 Xposition Yposition Zposition Zrotation Xrotation Yrotation
                        End Site
                        {
                          OFFSET -0.0147 -0.0181 0.0096
                        }
                      }
                    }
                  }
                  JOINT rPinky1
                  {
                    OFFSET -4.9141 -1.269 0.3592
                    CHANNELS 6 Xposition Yposition Zposition Zrotation Xrotation Yrotation
                    JOINT rPinky2
                    {
                      OFFSET -3.1477 -1.685 0.8462
                      CHANNELS 6 Xposition Yposition Zposition Zrotation Xrotation Yrotation
                      JOINT rPinky2_End
                      {
                        OFFSET -0.8055 -1.585 0.7955
                        CHANNELS 6 Xposition Yposition Zposition Zrotation Xrotation Yrotation
                        End Site
                        {
                          OFFSET -0.0081 -0.0158 0.008
                        }
                      }
                    }
                  }
                }
              }
            }
          }
        }
      }
    }
  }
  JOINT lThigh
  {
    OFFSET 8.367 -8.2066 0.5982
    CHANNELS 6 Xposition Yposition Zposition Zrotation Xrotation Yrotation
    JOINT lShin
    {
      OFFSET 2.1923 -43.463 -0.4932
      CHANNELS 6 Xposition Yposition Zposition Zrotation Xrotation Yrotation
      JOINT lFoot
      {
        OFFSET 0.7333 -45.8593 -2.6451
        CHANNELS 6 Xposition Yposition Zposition Zrotation Xrotation Yrotation
        End Site
        {
          OFFSET 2.6618 -4.2699 12.3931
        }
      }
    }
  }
  JOINT rThigh
  {
    OFFSET -8.367 -8.2066 0.5982
    CHANNELS 6 Xposition Yposition Zposition Zrotation Xrotation Yrotation
    JOINT rShin
    {
      OFFSET -2.1923 -43.463 -0.4931
      CHANNELS 6 Xposition Yposition Zposition Zrotation Xrotation Yrotation
      JOINT rFoot
      {
        OFFSET -0.7333 -45.8593 -2.6451
        CHANNELS 6 Xposition Yposition Zposition Zrotation Xrotation Yrotation
        End Site
        {
          OFFSET -2.6618 -4.2699 12.3931
        }
      }
    }
  }
}
MOTION
Frames:	4
Frame Time:	0.0333333
0 90.174 2.4664 0 0 -0 0 -1.186 -1.5018 0 0 -0 0 9.964 0.2134 0 0 -0 0 13.134 -3.2573 0 0 -0 0 20.686 -1.6905 0 0 -0 0 7.238 -0.1237 0 0 -0 1.7069 20.075 5.0056 0 0 -0 13.6458 -0.047 -4.849 1.66051 0.0835086 5.75766 28.3255 -0.9759 2.2888 -0.0175111 0.895433 15.7816 22.1583 -0.53 10.8316 7.95139e-016 -1.98785e-016 -0 0.786 0.112 2.5817 5.46658e-016 -3.97569e-016 -0 0.3601 -0.878 4.2331 5.96354e-016 0 -0 1.8127 -1.216 2.2227 3.97569e-016 1.98785e-016 9.54166e-015 0.9571 1.114 1.7695 1.49089e-016 -3.97569e-016 -0 4.1246 0.487 4.1451 6.4605e-016 0 3.18055e-015 3.4052 -1.454 2.7682 5.96354e-016 0 3.18055e-015 1.4531 -1.795 1.2713 8.94531e-016 -1.98785e-016 6.36111e-015 5.6954 0.21 2.1184 6.4605e-016 0 3.18055e-015 3.9766 -1.54 2.3863 5.96354e-016 0 3.18055e-015 1.4042 -1.926 1.125 8.94531e-016 -1.98785e-016 6.36111e-015 2.0956 0.66 -0.3894 1.49089e-016 -3.97569e-016 -0 5.0395 -0.09 2.4971 6.4605e-016 0 3.18055e-015 3.7921 -1.552 1.4806 5.96354e-016 0 3.18055e-015 1.4655 -1.808 0.9609 8.94531e-016 -1.98785e-016 6.36111e-015 4.9141 -1.269 0.3591 6.4605e-016 0 3.18055e-015 3.1477 -1.685 0.8462 5.96354e-016 0 3.18055e-015 0.8055 -1.585 0.7955 8.94531e-016 -1.98785e-016 6.36111e-015 -1.7069 20.075 5.0056 0 0 -0 -13.6458 -0.047 -4.849 -1.4496 0.0636048 -5.0245 -28.3255 -0.9759 2.2888 -1.74811 1.20616 -16.8394 -22.1583 -0.53 10.8316 -1.19271e-015 1.98785e-016 -3.18055e-015 -0.786 0.112 2.5817 -3.97569e-016 1.98785e-016 -3.18055e-015 -0.3601 -0.878 4.2331 -2.98177e-016 1.98785e-016 -3.18055e-015 -1.8127 -1.216 2.2227 -2.98177e-016 3.97569e-016 -0 -0.9571 1.114 1.7695 4.96962e-016 0 -6.36111e-015 -4.1246 0.487 4.1451 -9.93923e-017 3.97569e-016 -0 -3.4052 -1.454 2.7682 -8.94531e-016 5.96354e-016 -0 -1.4531 -1.795 1.2713 -3.97569e-016 3.97569e-016 -0 -5.6954 0.21 2.1184 -9.93923e-017 3.97569e-016 -0 -3.9766 -1.54 2.3863 -8.94531e-016 5.96354e-016 -0 -1.4042 -1.926 1.125 -3.97569e-016 3.97569e-016 -0 -2.0956 0.66 -0.3894 4.96962e-016 0 -6.36111e-015 -5.0395 -0.09 2.4971 -9.93923e-017 3.97569e-016 -0 -3.7921 -1.552 1.4806 -8.94531e-016 5.96354e-016 -0 -1.4655 -1.808 0.9609 -3.97569e-016 3.97569e-016 -0 -4.9141 -1.269 0.3592 -9.93923e-017 3.97569e-016 -0 -3.1477 -1.685 0.8462 -8.94531e-016 5.96354e-016 -0 -0.8055 -1.585 0.7955 -3.97569e-016 3.97569e-016 -0 8.367 -8.2066 0.5982 -4.66115 -1.03232 0.120763 2.1923 -43.463 -0.4932 0.00990601 1.55097 0.177175 0.7333 -45.8593 -2.6451 4.65196 -0.54114 -0.255042 -8.367 -8.2066 0.5982 4.66115 -1.03222 -0.120763 -2.1923 -43.463 -0.4931 -0.00990459 1.5509 -0.177176 -0.7333 -45.8593 -2.6451 -4.65196 -0.541171 0.255041 
15.5632 59.8082 -1.7701 -0 -24.7609 -0 0 -1.186 -1.5018 -0.0243523 1.61141 -0.0409625 0 9.964 0.2134 -0.0475799 3.22284 -0.0812877 0 13.134 -3.2573 -0.0475799 3.22284 -0.0812877 0 20.686 -1.6905 3.4833e-007 1.87054 9.98217e-007 1.77636e-015 7.238 -0.1237 -2.27512e-008 0.756454 -3.81424e-008 1.7069 20.075 5.0056 0.625403 -3.24739 1.02233 13.6458 -0.047 -4.849 -17.4242 2.65733 13.3752 28.3255 -0.9759 2.2888 5.76572 10.0733 4.1158 22.1583 -0.53 10.8316 -1.06782 4.40555 -14.185 0.786 0.112 2.5817 2.02201e-015 5.96354e-016 -0 0.3601 -0.878 4.2331 5.20257e-015 1.98785e-016 -1.98785e-016 1.8127 -1.216 2.2227 5.21189e-015 0 -0 0.9571 1.114 1.7695 2.02512e-015 5.96354e-016 9.93923e-017 4.1246 0.487 4.1451 5.40446e-015 0 6.26172e-015 3.4052 -1.454 2.7682 5.40446e-015 1.98785e-016 -9.93923e-017 1.4531 -1.795 1.2713 5.40446e-015 3.97569e-016 -9.93923e-017 5.6954 0.21 2.1184 5.40446e-015 0 6.26172e-015 3.9766 -1.54 2.3863 5.40446e-015 1.98785e-016 -9.93923e-017 1.4042 -1.926 1.125 5.40446e-015 3.97569e-016 -9.93923e-017 2.0956 0.66 -0.3894 2.02512e-015 5.96354e-016 9.93923e-017 5.0395 -0.09 2.4971 5.40446e-015 0 6.26172e-015 3.7921 -1.552 1.4806 5.40446e-015 1.98785e-016 -9.93923e-017 1.4655 -1.808 0.9609 5.40446e-015 3.97569e-016 -9.93923e-017 4.9141 -1.269 0.3591 5.40446e-015 0 6.26172e-015 3.1477 -1.685 0.8462 5.40446e-015 1.98785e-016 -9.93923e-017 0.8055 -1.585 0.7955 5.40446e-015 3.97569e-016 -9.93923e-017 -1.7069 20.075 5.0056 -6.00959 7.4108 -5.88119 -13.6458 -0.047 -4.849 22.8317 1.90996 -14.605 -28.3255 -0.9759 2.2888 -10.324 7.08277 7.552 -22.1583 -0.53 10.8316 0.63027 3.42601 14.2441 -0.786 0.112 2.5817 4.29872e-015 -7.95139e-016 3.97569e-016 -0.3601 -0.878 4.2331 4.8703e-009 2.12308e-007 -2.04661e-008 -1.8127 -1.216 2.2227 -1.88845e-015 0 3.97569e-016 -0.9571 1.114 1.7695 5.889e-015 -7.95139e-016 3.97569e-016 -4.1246 0.487 4.1451 -8.69683e-016 -7.95139e-016 7.15625e-015 -3.4052 -1.454 2.7682 4.8703e-009 2.12308e-007 -2.04661e-008 -1.4531 -1.795 1.2713 -2.41026e-015 7.95139e-016 7.95139e-016 -5.6954 0.21 2.1184 -8.69683e-016 -7.95139e-016 7.15625e-015 -3.9766 -1.54 2.3863 4.8703e-009 2.12308e-007 -2.04661e-008 -1.4042 -1.926 1.125 -2.41026e-015 7.95139e-016 7.95139e-016 -2.0956 0.66 -0.3894 5.889e-015 -7.95139e-016 3.97569e-016 -5.0395 -0.09 2.4971 -8.69683e-016 -7.95139e-016 7.15625e-015 -3.7921 -1.552 1.4806 4.8703e-009 2.12308e-007 -2.04661e-008 -1.4655 -1.808 0.9609 -2.41026e-015 7.95139e-016 7.95139e-016 -4.9141 -1.269 0.3592 -8.69683e-016 -7.95139e-016 7.15625e-015 -3.1477 -1.685 0.8462 4.8703e-009 2.12308e-007 -2.04661e-008 -0.8055 -1.585 0.7955 -2.41026e-015 7.95139e-016 7.95139e-016 8.367 -8.2066 0.5982 10.1814 -11.5558 -9.14747 2.1923 -43.463 -0.4932 -2.03727 7.01785 0.565699 0.7333 -45.8593 -2.6451 8.16453 4.40383 13.5395 -8.367 -8.2066 0.5982 -13.8534 -25.0008 -13.9446 -2.1923 -43.463 -0.4931 0.664403 38.918 -3.16552 -0.7333 -45.8593 -2.6451 -11.4884 20.7461 20.3403 
31.0678 26.8271 -5.22006 -0 -49.5218 -0 0 -1.186 -1.5018 -0.0390241 3.2227 -0.0863179 0 9.964 0.2134 -0.073351 6.44547 -0.17084 0 13.134 -3.2573 -0.073351 6.44547 -0.17084 -3.55271e-015 20.686 -1.6905 -2.55768e-007 3.74119 2.36641e-007 0 7.238 -0.1237 -1.00341e-008 1.51292 8.14629e-009 1.7069 20.075 5.0056 1.36735 -6.49157 2.05456 13.6458 -0.047 -4.849 -37.1616 5.09943 21.0382 28.3255 -0.9759 2.2888 15.4289 17.6157 -8.51792 22.1583 -0.53 10.8316 -0.700059 7.40853 -28.5774 0.786 0.112 2.5817 -1.19271e-015 -1.98785e-015 -3.18055e-015 0.3601 -0.878 4.2331 9.93923e-016 0 3.18055e-015 1.8127 -1.216 2.2227 8.15017e-015 3.97569e-016 -0 0.9571 1.114 1.7695 -4.37326e-015 -1.98785e-015 -0 4.1246 0.487 4.1451 3.18055e-015 -7.95139e-016 6.36111e-015 3.4052 -1.454 2.7682 -3.18055e-015 3.97569e-016 -0 1.4531 -1.795 1.2713 -2.5842e-015 3.97569e-016 -0 5.6954 0.21 2.1184 3.18055e-015 -7.95139e-016 6.36111e-015 3.9766 -1.54 2.3863 -3.18055e-015 3.97569e-016 -0 1.4042 -1.926 1.125 -2.5842e-015 3.97569e-016 -0 2.0956 0.66 -0.3894 -4.37326e-015 -1.98785e-015 -0 5.0395 -0.09 2.4971 3.18055e-015 -7.95139e-016 6.36111e-015 3.7921 -1.552 1.4806 -3.18055e-015 3.97569e-016 -0 1.4655 -1.808 0.9609 -2.5842e-015 3.97569e-016 -0 4.9141 -1.269 0.3591 3.18055e-015 -7.95139e-016 6.36111e-015 3.1477 -1.685 0.8462 -3.18055e-015 3.97569e-016 -0 0.8055 -1.585 0.7955 -2.5842e-015 3.97569e-016 -0 -1.7069 20.075 5.0056 -10.4626 14.5847 -12.0579 -13.6458 -0.047 -4.849 47.6818 3.61212 -24.2143 -28.3255 -0.9759 2.2888 -23.8123 8.24052 32.1835 -22.1583 -0.53 10.8316 0.0705973 5.60247 28.6035 -0.786 0.112 2.5817 -9.0574e-008 -1.79675e-007 3.37707e-006 -0.3601 -0.878 4.2331 3.7798e-006 8.52955e-007 -3.83351e-006 -1.8127 -1.216 2.2227 1.43693e-007 6.25498e-007 3.2207e-006 -0.9571 1.114 1.7695 4.37326e-015 1.98785e-016 -3.18055e-015 -4.1246 0.487 4.1451 -9.0574e-008 -1.79675e-007 3.37707e-006 -3.4052 -1.454 2.7682 3.7798e-006 8.52955e-007 -3.83351e-006 -1.4531 -1.795 1.2713 1.43693e-007 6.25498e-007 3.2207e-006 -5.6954 0.21 2.1184 -9.0574e-008 -1.79675e-007 3.37707e-006 -3.9766 -1.54 2.3863 3.7798e-006 8.52955e-007 -3.83351e-006 -1.4042 -1.926 1.125 1.43693e-007 6.25498e-007 3.2207e-006 -2.0956 0.66 -0.3894 4.37326e-015 1.98785e-016 -3.18055e-015 -5.0395 -0.09 2.4971 -9.0574e-008 -1.79675e-007 3.37707e-006 -3.7921 -1.552 1.4806 3.7798e-006 8.52955e-007 -3.83351e-006 -1.4655 -1.808 0.9609 1.43693e-007 6.25498e-007 3.2207e-006 -4.9141 -1.269 0.3592 -9.0574e-008 -1.79675e-007 3.37707e-006 -3.1477 -1.685 0.8462 3.7798e-006 8.52955e-007 -3.83351e-006 -0.8055 -1.585 0.7955 1.43693e-007 6.25498e-007 3.2207e-006 8.367 -8.2066 0.5982 21.338 -20.3749 -19.6065 2.1923 -43.463 -0.4932 -3.07984 11.2238 0.543568 0.7333 -45.8593 -2.6451 9.93158 9.70365 27.2635 -8.367 -8.2066 0.5982 -46.8377 -45.6753 -36.7606 -2.1923 -43.463 -0.4931 8.60525 77.115 -13.2444 -0.7333 -45.8593 -2.6451 -33.2043 33.7862 46.4626 
41.7225 2.59047 -6.4118 -0 -67.0038 -0 0 -1.186 -1.5018 -0.0431565 4.35902 -0.12034 0 9.964 0.2134 -0.0774378 8.71812 -0.238415 7.10543e-015 13.134 -3.2573 -0.0774378 8.71814 -0.238415 7.10543e-015 20.686 -1.6905 -2.69309e-007 4.99719 -5.48369e-007 0 7.238 -0.1237 4.7769e-008 1.9987 -9.07967e-008 1.7069 20.075 5.0056 2.0307 -8.70348 2.82595 13.6458 -0.047 -4.849 -51.4024 6.65138 26.4626 28.3255 -0.9759 2.2888 24.3715 21.2278 -18.1797 22.1583 -0.53 10.8316 0.037596 8.51154 -38.6647 0.786 0.112 2.5817 3.18055e-015 -2.98177e-015 -9.54166e-015 0.3601 -0.878 4.2331 3.97569e-016 3.77691e-015 -3.18055e-015 1.8127 -1.216 2.2227 1.19271e-015 -5.76476e-015 -9.54166e-015 0.9571 1.114 1.7695 3.18055e-015 -1.59028e-015 -9.54166e-015 4.1246 0.487 4.1451 3.97569e-016 2.38542e-015 6.36111e-015 3.4052 -1.454 2.7682 3.97569e-016 2.18663e-015 -6.36111e-015 1.4531 -1.795 1.2713 3.97569e-016 -8.15017e-015 -0 5.6954 0.21 2.1184 3.97569e-016 2.38542e-015 6.36111e-015 3.9766 -1.54 2.3863 3.97569e-016 2.18663e-015 -6.36111e-015 1.4042 -1.926 1.125 3.97569e-016 -8.15017e-015 -0 2.0956 0.66 -0.3894 3.18055e-015 -1.59028e-015 -9.54166e-015 5.0395 -0.09 2.4971 3.97569e-016 2.38542e-015 6.36111e-015 3.7921 -1.552 1.4806 3.97569e-016 2.18663e-015 -6.36111e-015 1.4655 -1.808 0.9609 3.97569e-016 -8.15017e-015 -0 4.9141 -1.269 0.3591 3.97569e-016 2.38542e-015 6.36111e-015 3.1477 -1.685 0.8462 3.97569e-016 2.18663e-015 -6.36111e-015 0.8055 -1.585 0.7955 3.97569e-016 -8.15017e-015 -0 -1.7069 20.075 5.0056 -12.7461 19.3777 -16.6827 -13.6458 -0.047 -4.849 65.461 4.62433 -31.0093 -28.3255 -0.9759 2.2888 -34.237 4.92844 48.7585 -22.1583 -0.53 10.8316 -0.676743 6.25206 38.642 -0.786 0.112 2.5817 -1.59028e-015 -2.78299e-015 1.27222e-014 -0.3601 -0.878 4.2331 7.95139e-016 1.59028e-015 1.90833e-014 -1.8127 -1.216 2.2227 6.62086e-032 -1.19271e-015 3.18055e-015 -0.9571 1.114 1.7695 1.32417e-031 -2.38542e-015 3.18055e-015 -4.1246 0.487 4.1451 -2.38542e-015 2.78299e-015 6.36111e-015 -3.4052 -1.454 2.7682 7.95139e-016 -3.97569e-016 3.18055e-015 -1.4531 -1.795 1.2713 2.38542e-015 3.97569e-016 1.27222e-014 -5.6954 0.21 2.1184 -2.38542e-015 2.78299e-015 6.36111e-015 -3.9766 -1.54 2.3863 7.95139e-016 -3.97569e-016 3.18055e-015 -1.4042 -1.926 1.125 2.38542e-015 3.97569e-016 1.27222e-014 -2.0956 0.66 -0.3894 1.32417e-031 -2.38542e-015 3.18055e-015 -5.0395 -0.09 2.4971 -2.38542e-015 2.78299e-015 6.36111e-015 -3.7921 -1.552 1.4806 7.95139e-016 -3.97569e-016 3.18055e-015 -1.4655 -1.808 0.9609 2.38542e-015 3.97569e-016 1.27222e-014 -4.9141 -1.269 0.3592 -2.38542e-015 2.78299e-015 6.36111e-015 -3.1477 -1.685 0.8462 7.95139e-016 -3.97569e-016 3.18055e-015 -0.8055 -1.585 0.7955 2.38542e-015 3.97569e-016 1.27222e-014 8.367 -8.2066 0.5982 26.2459 -26.0483 -28.1908 2.1923 -43.463 -0.4932 -3.01992 16.6968 0.274336 0.7333 -45.8593 -2.6451 10.1338 11.5372 37.0274 -8.367 -8.2066 0.5982 -83.4303 -53.4999 -64.5239 -2.1923 -43.463 -0.4931 169.519 75.2653 -175.895 -0.7333 -45.8593 -2.6451 -54.0838 34.6814 66.2307 
